<svg width="20" height="24" viewBox="0 0 20 24" fill="none" xmlns="http://www.w3.org/2000/svg">
<path d="M15.0002 0H5.00015C3.67456 0.00158786 2.40371 0.528882 1.46637 1.46622C0.529035 2.40356 0.00174045 3.67441 0.000152588 5V20C0.000152588 21.0609 0.42158 22.0783 1.17173 22.8284C1.92187 23.5786 2.93929 24 4.00015 24H15.0002C16.3257 23.9984 17.5966 23.4711 18.5339 22.5338C19.4713 21.5964 19.9986 20.3256 20.0002 19V5C19.9986 3.67441 19.4713 2.40356 18.5339 1.46622C17.5966 0.528882 16.3257 0.00158786 15.0002 0V0ZM18.0002 5V16H6.00015V2H15.0002C15.7958 2 16.5589 2.31607 17.1215 2.87868C17.6841 3.44129 18.0002 4.20435 18.0002 5ZM4.00015 2.172V16C3.29778 15.9994 2.60776 16.1847 2.00015 16.537V5C2.00024 4.37969 2.19261 3.77466 2.55079 3.2682C2.90896 2.76175 3.41532 2.37877 4.00015 2.172ZM15.0002 22H4.00015C3.46972 22 2.96101 21.7893 2.58594 21.4142C2.21087 21.0391 2.00015 20.5304 2.00015 20C2.00015 19.4696 2.21087 18.9609 2.58594 18.5858C2.96101 18.2107 3.46972 18 4.00015 18H18.0002V19C18.0002 19.7956 17.6841 20.5587 17.1215 21.1213C16.5589 21.6839 15.7958 22 15.0002 22Z" fill="#374957"/>
</svg>