<svg width="20" height="24" viewBox="0 0 20 24" xmlns="http://www.w3.org/2000/svg">
<path d="M15.0002 14C15.0002 14.2652 14.8948 14.5196 14.7073 14.7071C14.5197 14.8947 14.2654 15 14.0002 15H6.00015C5.73494 15 5.48058 14.8947 5.29305 14.7071C5.10551 14.5196 5.00015 14.2652 5.00015 14C5.00015 13.7348 5.10551 13.4805 5.29305 13.2929C5.48058 13.1054 5.73494 13 6.00015 13H14.0002C14.2654 13 14.5197 13.1054 14.7073 13.2929C14.8948 13.4805 15.0002 13.7348 15.0002 14ZM11.0002 17H6.00015C5.73494 17 5.48058 17.1054 5.29305 17.2929C5.10551 17.4805 5.00015 17.7348 5.00015 18C5.00015 18.2652 5.10551 18.5196 5.29305 18.7071C5.48058 18.8947 5.73494 19 6.00015 19H11.0002C11.2654 19 11.5197 18.8947 11.7073 18.7071C11.8948 18.5196 12.0002 18.2652 12.0002 18C12.0002 17.7348 11.8948 17.4805 11.7073 17.2929C11.5197 17.1054 11.2654 17 11.0002 17ZM20.0002 10.485V19C19.9986 20.3256 19.4713 21.5965 18.5339 22.5338C17.5966 23.4711 16.3257 23.9984 15.0002 24H5.00015C3.67456 23.9984 2.40371 23.4711 1.46637 22.5338C0.529035 21.5965 0.00174045 20.3256 0.000152588 19V5.00002C0.00174045 3.67443 0.529035 2.40358 1.46637 1.46624C2.40371 0.528905 3.67456 0.00161091 5.00015 2.30487e-05H9.51515C10.4348 -0.00234388 11.3457 0.177611 12.1954 0.529482C13.045 0.881354 13.8165 1.39816 14.4652 2.05002L17.9492 5.53602C18.6014 6.18426 19.1185 6.95548 19.4706 7.805C19.8226 8.65451 20.0026 9.56545 20.0002 10.485ZM13.0512 3.46402C12.7364 3.15918 12.3831 2.89695 12.0002 2.68402V7.00002C12.0002 7.26524 12.1055 7.51959 12.293 7.70713C12.4806 7.89467 12.7349 8.00002 13.0002 8.00002H17.3162C17.1031 7.61721 16.8405 7.26417 16.5352 6.95002L13.0512 3.46402ZM18.0002 10.485C18.0002 10.32 17.9682 10.162 17.9532 10H13.0002C12.2045 10 11.4414 9.68395 10.8788 9.12134C10.3162 8.55873 10.0002 7.79567 10.0002 7.00002V2.04702C9.83815 2.03202 9.67915 2.00002 9.51515 2.00002H5.00015C4.2045 2.00002 3.44144 2.31609 2.87883 2.8787C2.31622 3.44131 2.00015 4.20437 2.00015 5.00002V19C2.00015 19.7957 2.31622 20.5587 2.87883 21.1213C3.44144 21.684 4.2045 22 5.00015 22H15.0002C15.7958 22 16.5589 21.684 17.1215 21.1213C17.6841 20.5587 18.0002 19.7957 18.0002 19V10.485Z"/>
</svg>