<svg width="24" height="22" viewBox="0 0 24 22" fill="none" xmlns="http://www.w3.org/2000/svg">
<path d="M22.2 1.16303C21.6378 0.692962 20.9791 0.352423 20.2705 0.165598C19.5619 -0.0212274 18.8209 -0.0497575 18.1 0.0820333L14.278 0.776033C13.3956 0.938077 12.5933 1.39206 12 2.06503C11.4052 1.3909 10.6006 0.936811 9.716 0.776033L5.9 0.0820333C5.17916 -0.0498729 4.43813 -0.0217166 3.72938 0.164509C3.02062 0.350735 2.36147 0.690477 1.79857 1.15969C1.23567 1.6289 0.782786 2.2161 0.471982 2.87974C0.161178 3.54338 4.88125e-05 4.26722 0 5.00003L0 15.793C5.74559e-05 16.9638 0.410977 18.0975 1.16113 18.9964C1.91129 19.8953 2.95311 20.5025 4.105 20.712L10.391 21.855C11.455 22.0484 12.545 22.0484 13.609 21.855L19.9 20.712C21.051 20.5014 22.0916 19.8938 22.8408 18.995C23.5899 18.0962 24.0002 16.9631 24 15.793V5.00003C24.0005 4.26748 23.8394 3.54383 23.5283 2.88063C23.2171 2.21742 22.7636 1.63097 22.2 1.16303ZM11 19.928C10.916 19.916 10.832 19.902 10.748 19.887L4.463 18.745C3.77176 18.6193 3.14659 18.2549 2.69649 17.7154C2.24638 17.176 1.99989 16.4956 2 15.793V5.00003C2 4.20438 2.31607 3.44132 2.87868 2.87871C3.44129 2.3161 4.20435 2.00003 5 2.00003C5.18109 2.00047 5.36179 2.01686 5.54 2.04903L9.36 2.74903C9.81961 2.83314 10.2353 3.0755 10.5348 3.43408C10.8344 3.79265 10.999 4.24479 11 4.71203V19.928ZM22 15.793C22.0001 16.4956 21.7536 17.176 21.3035 17.7154C20.8534 18.2549 20.2282 18.6193 19.537 18.745L13.252 19.887C13.168 19.902 13.084 19.916 13 19.928V4.71203C12.9999 4.24365 13.1643 3.79009 13.4643 3.43044C13.7644 3.0708 14.1812 2.82787 14.642 2.74403L18.463 2.04403C18.8957 1.9653 19.3405 1.98269 19.7657 2.09494C20.191 2.2072 20.5863 2.41159 20.9238 2.69364C21.2613 2.97569 21.5326 3.32849 21.7186 3.72706C21.9046 4.12563 22.0007 4.56021 22 5.00003V15.793Z" fill="#374957"/>
</svg>
